<svg width="70" height="18" viewBox="0 0 70 18" fill="none" xmlns="http://www.w3.org/2000/svg">
<path d="M2.6533 2.86251C3.1572 2.9165 3.6971 2.95249 4.27299 2.95249C5.31679 2.95249 9.50998 2.95249 10.5178 2.95249C11.0217 2.95249 11.6696 2.9165 12.1915 2.86251V4.35622C11.6516 4.32023 11.0217 4.28424 10.5178 4.28424C9.50998 4.28424 5.31679 4.28424 4.30898 4.28424C3.6971 4.28424 3.12121 4.32023 2.6533 4.35622V2.86251ZM0.511709 7.37964C0.997616 7.43363 1.51952 7.46962 2.07741 7.46962C3.12121 7.46962 12.8933 7.46962 13.8471 7.46962C14.2251 7.46962 14.819 7.43363 15.2689 7.37964V8.87336C14.8729 8.83736 14.2971 8.81937 13.8471 8.81937C12.8933 8.81937 3.12121 8.81937 2.07741 8.81937C1.53751 8.81937 0.997616 8.83736 0.511709 8.87336V7.37964ZM8.98808 8.0995C8.98808 10.3671 8.70013 12.2387 7.90829 13.7504C7.24242 14.9562 5.89267 16.2519 4.36297 17.0258L3.03122 16.054C4.41696 15.4601 5.71271 14.4343 6.43257 13.2825C7.3324 11.8608 7.45837 10.0971 7.47637 8.1175L8.98808 8.0995ZM13.1273 1.3868C13.5772 2.03467 14.2251 3.13246 14.585 3.85232L13.6132 4.28424C13.2713 3.56438 12.6594 2.48458 12.1735 1.80072L13.1273 1.3868ZM15.0889 0.666933C15.5748 1.33281 16.2587 2.44859 16.6006 3.11446L15.6468 3.54638C15.2509 2.77253 14.657 1.74673 14.1531 1.08085L15.0889 0.666933ZM31.3218 2.28662C31.6637 2.9345 32.1316 4.05028 32.3836 4.77014L31.4838 5.07609C31.2318 4.32023 30.8179 3.24044 30.4579 2.55657L31.3218 2.28662ZM33.1214 1.72873C33.4634 2.3946 33.9313 3.49239 34.2012 4.21225L33.3014 4.51819C33.0135 3.70835 32.6175 2.68255 32.2396 1.99868L33.1214 1.72873ZM29.6121 8.06351C29.6121 12.8506 28.5863 15.3161 24.4831 17.1518L23.2593 16.018C26.5347 14.7582 28.1724 13.2105 28.1724 8.17149V3.79833C28.1724 3.09647 28.1184 2.50258 28.0824 2.32261H29.7021C29.6841 2.50258 29.6121 3.09647 29.6121 3.79833V8.06351ZM23.1334 2.44859C23.1154 2.61056 23.0434 3.11446 23.0434 3.74434V10.3491C23.0434 10.9969 23.0974 11.7888 23.1154 11.9688H21.5317C21.5497 11.7888 21.6037 11.0329 21.6037 10.3491V3.74434C21.6037 3.36641 21.5857 2.84452 21.5317 2.44859H23.1334ZM17.8604 5.93992C18.0223 5.95792 18.9042 6.0479 19.678 6.0479H31.5917C32.3836 6.0479 32.9955 5.99391 33.2474 5.95792V7.48762C33.0495 7.45163 32.3836 7.43363 31.5917 7.43363H19.678C18.8862 7.43363 18.0763 7.46962 17.8604 7.48762V5.93992ZM36.5408 9.50323C39.6542 8.67539 42.3897 7.39764 44.3873 6.15588C46.2769 4.96811 48.0766 3.4204 49.3183 1.90869L50.5241 3.04248C48.9764 4.64417 47.0868 6.15588 44.9812 7.46962C43.0015 8.69339 40.1401 10.0071 37.2426 10.907L36.5408 9.50323ZM44.0993 6.89374L45.647 6.42583V14.6502C45.647 15.3161 45.683 16.2159 45.773 16.5579H43.9913C44.0453 16.2159 44.0993 15.3161 44.0993 14.6502V6.89374ZM57.0748 2.82652C58.3346 3.67235 60.6561 5.544 61.646 6.53381L60.5302 7.68558C59.6123 6.74976 57.3808 4.80614 56.031 3.92431L57.0748 2.82652ZM55.5271 14.8842C58.6585 14.4163 60.9981 13.3185 62.7077 12.2567C65.4972 10.511 67.6748 7.84755 68.7186 5.61598L69.5824 7.16368C68.3587 9.39525 66.2711 11.8428 63.5536 13.5525C61.7359 14.6862 59.4684 15.802 56.4629 16.3599L55.5271 14.8842Z" fill="white"/>
</svg>
