<svg width="12" height="10" viewBox="0 0 12 10" fill="none" xmlns="http://www.w3.org/2000/svg">
<rect x="0.0231297" y="0.0309422" width="11.9381" height="9.93812" stroke="white" stroke-width="0.0618844"/>
<mask id="path-2-outside-1_1_318" maskUnits="userSpaceOnUse" x="0.639832" y="0.650269" width="9" height="9" fill="black">
<rect fill="white" x="0.639832" y="0.650269" width="9" height="9"/>
<path fill-rule="evenodd" clip-rule="evenodd" d="M7.40883 7.15062C7.92941 6.56682 8.24577 5.79697 8.24577 4.95324C8.24577 3.12906 6.76698 1.65027 4.9428 1.65027C3.11862 1.65027 1.63983 3.12906 1.63983 4.95324C1.63983 6.77742 3.11862 8.25621 4.9428 8.25621C5.5703 8.25621 6.15694 8.08122 6.65657 7.77738L7.58605 7.97676L7.40883 7.15062Z"/>
</mask>
<path d="M7.40883 7.15062L6.79299 6.60148L6.51421 6.91412L6.60206 7.32368L7.40883 7.15062ZM6.65657 7.77738L6.82962 6.97061L6.50847 6.90172L6.22784 7.07238L6.65657 7.77738ZM7.58605 7.97676L7.41299 8.78353L8.66039 9.05111L8.39282 7.8037L7.58605 7.97676ZM7.42064 4.95324C7.42064 5.58673 7.18399 6.16298 6.79299 6.60148L8.02468 7.69977C8.67483 6.97066 9.07089 6.00721 9.07089 4.95324H7.42064ZM4.9428 2.47539C6.31128 2.47539 7.42064 3.58476 7.42064 4.95324H9.07089C9.07089 2.67335 7.22268 0.825143 4.9428 0.825143V2.47539ZM2.46496 4.95324C2.46496 3.58476 3.57433 2.47539 4.9428 2.47539V0.825143C2.66292 0.825143 0.814706 2.67335 0.814706 4.95324H2.46496ZM4.9428 7.43108C3.57433 7.43108 2.46496 6.32171 2.46496 4.95324H0.814706C0.814706 7.23312 2.66292 9.08133 4.9428 9.08133V7.43108ZM6.22784 7.07238C5.85375 7.29988 5.41486 7.43108 4.9428 7.43108V9.08133C5.72575 9.08133 6.46013 8.86256 7.0853 8.48238L6.22784 7.07238ZM6.48351 8.58416L7.41299 8.78353L7.7591 7.16999L6.82962 6.97061L6.48351 8.58416ZM8.39282 7.8037L8.21561 6.97757L6.60206 7.32368L6.77927 8.14982L8.39282 7.8037Z" fill="white" mask="url(#path-2-outside-1_1_318)"/>
</svg>
