<svg width="6" height="13" viewBox="0 0 6 13" fill="none" xmlns="http://www.w3.org/2000/svg">
<path fill-rule="evenodd" clip-rule="evenodd" d="M4.29019 12.5201C4.0523 12.52 3.8173 12.4672 3.60162 12.3654C3.38595 12.2636 3.1948 12.1152 3.04154 11.9307C3.37398 11.6705 3.79288 11.5512 4.21023 11.5978C4.62758 11.6443 5.01091 11.8531 5.2797 12.1803C4.995 12.4014 4.64619 12.5209 4.28758 12.5201H4.29019ZM5.00745 10.5951C5.00703 10.2322 5.12483 9.87939 5.34252 9.59143C5.66378 9.86483 5.86887 10.2532 5.91518 10.676C5.96149 11.0988 5.84547 11.5234 5.59121 11.8616C5.40878 11.7064 5.26201 11.5127 5.16117 11.2939C5.06034 11.0751 5.00787 10.8366 5.00745 10.5951ZM2.5782 11.0571C2.34775 10.9946 2.13361 10.8817 1.95089 10.7262C1.76816 10.5706 1.62129 10.3763 1.52064 10.157C1.9084 9.99496 2.34284 9.99094 2.73345 10.1458C3.12406 10.3006 3.44071 10.6023 3.61744 10.9881C3.29808 11.1208 2.93683 11.1527 2.5782 11.0571ZM3.76403 9.38433C3.85659 9.03492 4.05987 8.7261 4.34255 8.50545C4.58261 8.85393 4.68119 9.28278 4.61782 9.70301C4.55446 10.1232 4.33402 10.5026 4.00224 10.7624C3.86569 10.5643 3.77359 10.3382 3.73243 10.1002C3.69128 9.86207 3.70206 9.61773 3.76403 9.38433ZM1.03374 9.08694C0.85007 8.93334 0.701721 8.74087 0.599077 8.52301C0.496433 8.30515 0.441975 8.06717 0.439514 7.82572C0.859249 7.84012 1.2572 8.01873 1.54999 8.32413C1.84278 8.62952 2.00769 9.038 2.01015 9.46398C1.65265 9.4507 1.30944 9.31818 1.03374 9.08694ZM2.79547 8.06735C3.03107 7.77527 3.34781 7.58941 3.6855 7.50975C3.76169 7.92846 3.67578 8.36084 3.44564 8.71693C3.21551 9.07301 2.85886 9.32537 2.44993 9.4215C2.40651 9.18388 2.41495 8.93951 2.47465 8.70555C2.53434 8.4716 2.64385 8.25376 2.79547 8.06735ZM0.753642 6.75833C0.615408 6.56153 0.521286 6.33645 0.477874 6.09885C0.434463 5.86126 0.442813 5.61691 0.50234 5.38294C0.904011 5.50696 1.24279 5.78382 1.44773 6.15552C1.65268 6.52722 1.70788 6.96493 1.60179 7.37699C1.25966 7.27104 0.961549 7.05359 0.753642 6.75833ZM2.71694 6.23526C3.00808 6.02469 3.35955 5.91737 3.71691 5.92991C3.68284 6.3536 3.48927 6.74773 3.17635 7.03052C2.86343 7.31331 2.45519 7.46306 2.03633 7.44868C2.05552 7.20791 2.12638 6.97431 2.24395 6.76424C2.36152 6.55418 2.52295 6.37272 2.71694 6.2326V6.23526ZM0.994473 4.3952C0.92452 4.16405 0.905378 3.92015 0.938394 3.68069C0.97141 3.44122 1.05578 3.21201 1.18557 3.00919C1.52735 3.25605 1.7618 3.62741 1.83986 4.04557C1.91792 4.46373 1.83355 4.89631 1.6044 5.25283C1.31392 5.04249 1.09962 4.74116 0.994473 4.3952ZM3.0206 4.52796C3.36194 4.4225 3.72799 4.4337 4.06245 4.55983C3.89822 4.95107 3.59175 5.26313 3.20667 5.43124C2.82159 5.59934 2.38747 5.61057 1.99445 5.46259C2.08825 5.24082 2.22869 5.04251 2.40594 4.88153C2.58318 4.72055 2.79296 4.60079 3.0206 4.53062V4.52796ZM1.98921 2.50736C1.929 2.00287 2.09915 1.52493 2.4159 1.17976C2.70938 1.48369 2.87591 1.89077 2.88078 2.31616C2.88566 2.74156 2.72851 3.15246 2.44208 3.46323C2.19147 3.20388 2.03227 2.86787 1.98921 2.50736ZM3.96036 3.00122C4.315 2.95826 4.67372 3.03477 4.98128 3.21895C4.7514 3.57475 4.39542 3.82724 3.98705 3.92412C3.57868 4.021 3.14922 3.95485 2.78762 3.73937C2.91814 3.53697 3.09075 3.36601 3.29335 3.23849C3.49595 3.11097 3.72362 3.02999 3.96036 3.00122ZM4.21428 1.19303C4.49402 0.96817 4.83904 0.843118 5.19593 0.837234C5.18319 1.2626 5.00931 1.66661 4.71046 1.96529C4.41161 2.26397 4.01076 2.43434 3.59126 2.44098C3.59893 2.19943 3.65869 1.96252 3.76632 1.74692C3.87396 1.53132 4.02686 1.34225 4.21428 1.19303Z" fill="white"/>
</svg>
