<svg width="7" height="13" viewBox="0 0 7 13" fill="none" xmlns="http://www.w3.org/2000/svg">
<path fill-rule="evenodd" clip-rule="evenodd" d="M2.16702 12.5201C2.40491 12.52 2.63991 12.4672 2.85559 12.3654C3.07127 12.2636 3.26242 12.1152 3.41568 11.9307C3.08323 11.6705 2.66434 11.5512 2.24699 11.5978C1.82963 11.6443 1.4463 11.8531 1.17752 12.1803C1.46221 12.4014 1.81103 12.5209 2.16964 12.5201H2.16702ZM1.44976 10.5951C1.45018 10.2322 1.33239 9.87939 1.11469 9.59143C0.793429 9.86483 0.588344 10.2532 0.542033 10.676C0.495723 11.0988 0.611748 11.5234 0.866008 11.8616C1.04843 11.7064 1.1952 11.5127 1.29604 11.2939C1.39688 11.0751 1.44934 10.8366 1.44976 10.5951ZM3.87901 11.0571C4.10946 10.9946 4.3236 10.8817 4.50633 10.7262C4.68906 10.5706 4.83592 10.3763 4.93658 10.157C4.54882 9.99496 4.11438 9.99094 3.72377 10.1458C3.33315 10.3006 3.0165 10.6023 2.83978 10.9881C3.15914 11.1208 3.52039 11.1527 3.87901 11.0571ZM2.69318 9.38433C2.60063 9.03492 2.39734 8.7261 2.11467 8.50545C1.8746 8.85393 1.77603 9.28278 1.83939 9.70301C1.90276 10.1232 2.1232 10.5026 2.45497 10.7624C2.59153 10.5643 2.68362 10.3382 2.72478 10.1002C2.76594 9.86207 2.75515 9.61773 2.69318 9.38433ZM5.42348 9.08694C5.60714 8.93334 5.75549 8.74087 5.85814 8.52301C5.96078 8.30515 6.01524 8.06717 6.0177 7.82572C5.59797 7.84012 5.20001 8.01873 4.90722 8.32413C4.61443 8.62952 4.44953 9.038 4.44706 9.46398C4.80457 9.4507 5.14777 9.31818 5.42348 9.08694ZM3.66174 8.06735C3.42615 7.77527 3.1094 7.58941 2.77172 7.50975C2.69552 7.92846 2.78143 8.36084 3.01157 8.71693C3.24171 9.07301 3.59835 9.32537 4.00728 9.4215C4.0507 9.18388 4.04227 8.93951 3.98257 8.70555C3.92287 8.4716 3.81336 8.25376 3.66174 8.06735ZM5.70357 6.75833C5.84181 6.56153 5.93593 6.33645 5.97934 6.09885C6.02275 5.86126 6.0144 5.61691 5.95487 5.38294C5.5532 5.50696 5.21442 5.78382 5.00948 6.15552C4.80454 6.52722 4.74933 6.96493 4.85543 7.37699C5.19755 7.27104 5.49567 7.05359 5.70357 6.75833ZM3.74028 6.23526C3.44913 6.02469 3.09766 5.91737 2.7403 5.92991C2.77437 6.3536 2.96795 6.74773 3.28086 7.03052C3.59378 7.31331 4.00202 7.46306 4.42088 7.44868C4.40169 7.20791 4.33083 6.97431 4.21326 6.76424C4.09569 6.55418 3.93426 6.37272 3.74028 6.2326V6.23526ZM5.46274 4.3952C5.53269 4.16405 5.55184 3.92015 5.51882 3.68069C5.4858 3.44122 5.40143 3.21201 5.27165 3.00919C4.92986 3.25605 4.69542 3.62741 4.61736 4.04557C4.53929 4.46373 4.62366 4.89631 4.85281 5.25283C5.1433 5.04249 5.3576 4.74116 5.46274 4.3952ZM3.43662 4.52796C3.09527 4.4225 2.72922 4.4337 2.39476 4.55983C2.559 4.95107 2.86546 5.26313 3.25055 5.43124C3.63563 5.59934 4.06974 5.61057 4.46277 5.46259C4.36896 5.24082 4.22852 5.04251 4.05128 4.88153C3.87403 4.72055 3.66425 4.60079 3.43662 4.53062V4.52796ZM4.468 2.50736C4.52821 2.00287 4.35806 1.52493 4.04131 1.17976C3.74784 1.48369 3.58131 1.89077 3.57643 2.31616C3.57156 2.74156 3.72871 3.15246 4.01514 3.46323C4.26575 3.20388 4.42494 2.86787 4.468 2.50736ZM2.49685 3.00122C2.14222 2.95826 1.78349 3.03477 1.47594 3.21895C1.70581 3.57475 2.0618 3.82724 2.47016 3.92412C2.87853 4.021 3.30799 3.95485 3.6696 3.73937C3.53908 3.53697 3.36646 3.36601 3.16386 3.23849C2.96126 3.11097 2.7336 3.02999 2.49685 3.00122ZM2.24293 1.19303C1.96319 0.96817 1.61817 0.843118 1.26128 0.837234C1.27403 1.2626 1.4479 1.66661 1.74676 1.96529C2.04561 2.26397 2.44645 2.43434 2.86595 2.44098C2.85828 2.19943 2.79853 1.96252 2.69089 1.74692C2.58325 1.53132 2.43035 1.34225 2.24293 1.19303Z" fill="white"/>
</svg>
