<svg width="63" height="250" viewBox="0 0 63 250" fill="none" xmlns="http://www.w3.org/2000/svg">
<path d="M39.431 80.979L39.431 75.6958L62.75 83.7459L62.75 90.0994L39.431 98.1381L39.431 92.8548L57.4213 87.0137L57.4213 86.8315L39.431 80.979ZM48.5969 80.6488L48.5969 93.1281L44.7484 93.1281L44.7484 80.6488L48.5969 80.6488Z" fill="white"/>
<path d="M39.431 100.945L62.75 100.945L62.75 105.875L43.4959 105.875L43.4959 115.872L39.431 115.872L39.431 100.945Z" fill="white"/>
<path d="M39.431 119.137L62.75 119.137L62.75 134.85L58.6851 134.85L58.6851 124.067L53.1286 124.067L53.1286 134.042L49.0638 134.042L49.0638 124.067L43.4959 124.067L43.4959 134.896L39.431 134.896L39.431 119.137Z" fill="white"/>
<path d="M62.75 143.393L54.8024 148.095L54.8024 148.277L62.75 153.003L62.75 158.57L51.0905 151.454L39.431 158.73L39.431 153.059L47.39 148.277L47.39 148.095L39.431 143.313L39.431 137.665L51.0905 144.964L62.75 137.802L62.75 143.393Z" fill="white"/>
<path d="M17.0643 89.6098C17.9828 89.5187 18.6964 89.1278 19.2049 88.437C19.7135 87.7462 19.9678 86.8088 19.9678 85.6246C19.9678 84.82 19.854 84.1406 19.6262 83.5865C19.4061 83.0323 19.0987 82.6073 18.7039 82.3112C18.3092 82.0228 17.8614 81.8785 17.3604 81.8785C16.9429 81.8634 16.5785 81.9507 16.2673 82.1404C15.9561 82.3378 15.6866 82.6073 15.4589 82.9488C15.2387 83.2904 15.0452 83.6852 14.8782 84.133C14.7188 84.5809 14.5821 85.0591 14.4683 85.5677L13.9673 87.6627C13.7396 88.6799 13.4359 89.6136 13.0564 90.4637C12.6768 91.3139 12.21 92.0502 11.6559 92.6727C11.1017 93.2951 10.4489 93.7771 9.69745 94.1187C8.94596 94.4679 8.0844 94.6463 7.11278 94.6539C5.68571 94.6463 4.4484 94.2819 3.40087 93.5608C2.36093 92.8473 1.55251 91.8149 0.975612 90.4637C0.406303 89.1202 0.121646 87.4995 0.121646 85.6018C0.121647 83.7193 0.410095 82.0797 0.986995 80.683C1.5639 79.2939 2.41787 78.2084 3.5489 77.4265C4.68752 76.6523 6.09561 76.2462 7.77318 76.2082L7.77318 80.979C6.99133 81.0322 6.33852 81.2561 5.81475 81.6508C5.29858 82.0531 4.90765 82.5883 4.64198 83.2563C4.38389 83.9319 4.25484 84.6947 4.25484 85.5449C4.25484 86.3799 4.37629 87.1048 4.6192 87.7197C4.86211 88.3421 5.1999 88.8241 5.63257 89.1657C6.06525 89.5073 6.56245 89.6781 7.12416 89.6781C7.64793 89.6781 8.0882 89.5225 8.44496 89.2113C8.80173 88.9076 9.10537 88.4598 9.35586 87.8677C9.60636 87.2832 9.83408 86.5659 10.039 85.7157L10.6767 83.1766C11.1549 81.2106 11.9026 79.6582 12.9197 78.5196C13.9369 77.381 15.3071 76.8155 17.0302 76.8231C18.4421 76.8155 19.6756 77.1912 20.7307 77.9503C21.7858 78.717 22.6094 79.7683 23.2015 81.1043C23.7936 82.4403 24.0896 83.9584 24.0896 85.6588C24.0896 87.3895 23.7936 88.9 23.2015 90.1905C22.6094 91.4885 21.7858 92.4981 20.7307 93.2192C19.6756 93.9403 18.4534 94.3123 17.0643 94.3351L17.0643 89.6098Z" fill="white"/>
<path d="M12.1113 119.399C9.5684 119.399 7.40502 118.917 5.62118 117.953C3.83734 116.996 2.47479 115.691 1.53353 114.036C0.599864 112.389 0.133029 110.537 0.133029 108.48C0.133029 106.407 0.603663 104.548 1.54492 102.9C2.48618 101.253 3.84873 99.9513 5.63257 98.9949C7.41641 98.0384 9.576 97.5602 12.1113 97.5602C14.6542 97.5602 16.8176 98.0384 18.6015 98.9949C20.3853 99.9513 21.7441 101.253 22.6777 102.9C23.619 104.548 24.0896 106.407 24.0896 108.48C24.0896 110.537 23.619 112.389 22.6777 114.036C21.7441 115.691 20.3853 116.996 18.6015 117.953C16.8176 118.917 14.6542 119.399 12.1113 119.399ZM12.1113 114.4C13.7585 114.4 15.1477 114.154 16.2787 113.66C17.4097 113.174 18.2675 112.488 18.852 111.599C19.4365 110.711 19.7287 109.671 19.7287 108.48C19.7287 107.288 19.4365 106.248 18.852 105.36C18.2675 104.472 17.4097 103.781 16.2787 103.287C15.1477 102.802 13.7585 102.559 12.1113 102.559C10.4641 102.559 9.075 102.802 7.94397 103.287C6.81294 103.781 5.95518 104.472 5.37069 105.36C4.7862 106.248 4.49395 107.288 4.49395 108.48C4.49395 109.671 4.7862 110.711 5.37069 111.599C5.95518 112.488 6.81294 113.174 7.94397 113.66C9.075 114.154 10.4641 114.4 12.1113 114.4Z" fill="white"/>
<path d="M15.6069 143.626L15.6069 138.639C16.2521 138.548 16.8252 138.362 17.3262 138.081C17.8348 137.8 18.2675 137.439 18.6242 136.999C18.981 136.559 19.2543 136.05 19.444 135.473C19.6338 134.904 19.7287 134.285 19.7287 133.617C19.7287 132.411 19.4289 131.359 18.8292 130.463C18.2371 129.568 17.3718 128.873 16.2331 128.38C15.1021 127.886 13.7282 127.64 12.1113 127.64C10.4489 127.64 9.05223 127.886 7.9212 128.38C6.79017 128.881 5.9362 129.579 5.3593 130.475C4.7824 131.371 4.49395 132.407 4.49395 133.583C4.49395 134.244 4.58124 134.855 4.75583 135.417C4.93042 135.986 5.18471 136.491 5.51871 136.931C5.8603 137.371 6.27399 137.735 6.75981 138.024C7.24561 138.32 7.79974 138.525 8.42219 138.639L8.39942 143.626C7.32911 143.497 6.29677 143.174 5.30237 142.658C4.31556 142.15 3.43124 141.463 2.64938 140.597C1.87512 139.739 1.26026 138.715 0.804815 137.523C0.356958 136.339 0.133028 134.999 0.133028 133.504C0.133028 131.424 0.603662 129.564 1.54492 127.924C2.48618 126.292 3.84873 125.002 5.63257 124.053C7.41641 123.112 9.57599 122.641 12.1113 122.641C14.6542 122.641 16.8176 123.119 18.6015 124.076C20.3853 125.032 21.7441 126.33 22.6777 127.97C23.619 129.61 24.0896 131.454 24.0896 133.504C24.0896 134.855 23.8998 136.107 23.5203 137.261C23.1408 138.422 22.5866 139.451 21.8579 140.347C21.1368 141.242 20.2525 141.971 19.2049 142.533C18.1574 143.102 16.9581 143.467 15.6069 143.626Z" fill="white"/>
<path d="M12.1113 168.59C9.5684 168.59 7.40502 168.108 5.62118 167.144C3.83734 166.188 2.47479 164.882 1.53353 163.227C0.599862 161.58 0.133027 159.728 0.133027 157.671C0.133027 155.599 0.603661 153.739 1.54492 152.092C2.48618 150.444 3.84873 149.143 5.63257 148.186C7.41641 147.23 9.57599 146.751 12.1113 146.751C14.6542 146.751 16.8176 147.23 18.6015 148.186C20.3853 149.143 21.7441 150.444 22.6777 152.092C23.619 153.739 24.0896 155.599 24.0896 157.671C24.0896 159.728 23.619 161.58 22.6777 163.227C21.7441 164.882 20.3853 166.188 18.6015 167.144C16.8176 168.108 14.6542 168.59 12.1113 168.59ZM12.1113 163.592C13.7585 163.592 15.1476 163.345 16.2787 162.852C17.4097 162.366 18.2675 161.679 18.852 160.791C19.4365 159.903 19.7287 158.863 19.7287 157.671C19.7287 156.479 19.4365 155.439 18.852 154.551C18.2675 153.663 17.4097 152.972 16.2787 152.479C15.1476 151.993 13.7585 151.75 12.1113 151.75C10.4641 151.75 9.075 151.993 7.94397 152.479C6.81294 152.972 5.95518 153.663 5.37069 154.551C4.78619 155.439 4.49395 156.479 4.49395 157.671C4.49395 158.863 4.78619 159.903 5.37069 160.791C5.95518 161.679 6.81294 162.366 7.94397 162.852C9.075 163.345 10.4641 163.592 12.1113 163.592Z" fill="white"/>
<path d="M0.451839 172.242L23.7708 172.242L23.7708 177.173L4.51672 177.173L4.51672 187.17L0.451839 187.17L0.451839 172.242Z" fill="white"/>
<path d="M12.1113 210.955C9.5684 210.955 7.40502 210.473 5.62118 209.509C3.83734 208.553 2.47479 207.247 1.53353 205.593C0.59986 203.945 0.133025 202.093 0.133025 200.036C0.133025 197.964 0.60366 196.104 1.54492 194.457C2.48618 192.81 3.84873 191.508 5.63257 190.551C7.41641 189.595 9.57599 189.117 12.1113 189.117C14.6542 189.117 16.8176 189.595 18.6015 190.551C20.3853 191.508 21.7441 192.81 22.6777 194.457C23.619 196.104 24.0896 197.964 24.0896 200.036C24.0896 202.093 23.619 203.945 22.6777 205.593C21.7441 207.247 20.3853 208.553 18.6015 209.509C16.8176 210.473 14.6542 210.955 12.1113 210.955ZM12.1113 205.957C13.7585 205.957 15.1476 205.71 16.2787 205.217C17.4097 204.731 18.2675 204.044 18.852 203.156C19.4364 202.268 19.7287 201.228 19.7287 200.036C19.7287 198.844 19.4364 197.804 18.852 196.916C18.2675 196.028 17.4097 195.337 16.2787 194.844C15.1476 194.358 13.7585 194.115 12.1113 194.115C10.4641 194.115 9.075 194.358 7.94397 194.844C6.81294 195.337 5.95518 196.028 5.37068 196.916C4.78619 197.804 4.49395 198.844 4.49394 200.036C4.49394 201.228 4.78619 202.268 5.37068 203.156C5.95518 204.044 6.81294 204.731 7.94397 205.217C9.075 205.71 10.4641 205.957 12.1113 205.957Z" fill="white"/>
<path d="M23.7709 214.609L0.451965 214.609L0.451965 230.049L4.51684 230.049L4.51684 219.539L10.0733 219.539L10.0733 229.024L14.1382 229.024L14.1382 219.539L23.7709 219.539L23.7709 214.609Z" fill="white"/>
<path d="M23.7709 233.365L0.451965 233.365L0.451964 248.805L4.51684 248.805L4.51684 238.295L10.0733 238.295L10.0733 247.78L14.1382 247.78L14.1382 238.295L23.7709 238.295L23.7709 233.365Z" fill="white"/>
<path fill-rule="evenodd" clip-rule="evenodd" d="M62.5469 13.8996C62.5469 6.22304 56.3238 -8.17343e-06 48.6473 -8.84453e-06L13.8984 -8.06768e-06C6.22191 -8.73878e-06 -0.00112848 6.22304 -0.00112909 13.8996L-0.00113186 48.6484C-0.00113247 56.325 6.22192 62.548 13.8984 62.548L48.6473 62.548C56.3238 62.548 62.5469 56.3249 62.5469 48.6484L62.5469 13.8996ZM52.1211 17.3747L52.1211 10.4249L52.1209 10.4249L45.7057 10.4249L32.8748 10.4249L26.4597 10.4249L10.4224 10.4249L10.4224 17.3747L26.4597 17.3747L26.4597 25.9783L32.8748 27.7994L32.8748 17.3747L45.7057 17.3747L45.7057 36.0995L52.1209 38.224L52.1209 17.3747L52.1211 17.3747ZM10.4204 52.1247L10.4204 45.1749L10.4206 45.1749L10.4206 24.3256L16.8358 26.653L16.8358 45.1749L26.4597 45.1749L26.4597 34.7489L32.8748 36.4371L32.8748 45.1749L52.1191 45.1749L52.1191 52.1247L16.8358 52.1247L10.4206 52.1247L10.4204 52.1247Z" fill="white"/>
<path d="M54.1668 243.872L62.5471 240.525L62.5471 242.381L57.0134 244.465L62.5471 246.537L62.5471 248.393L54.1668 245.057L54.1668 243.872ZM54.1668 239.876L62.5471 239.876L62.5471 241.982L54.1668 241.982L54.1668 239.876ZM54.1668 246.935L62.5471 246.935L62.5471 249.053L54.1668 249.053L54.1668 246.935ZM54.1668 233.75L61.8183 233.75L61.8183 235.868L54.1668 235.868L54.1668 233.75ZM60.805 231.2L62.5471 231.2L62.5471 238.419L60.805 238.419L60.805 231.2Z" fill="white"/>
</svg>
