<svg width="10" height="13" viewBox="0 0 10 13" fill="none" xmlns="http://www.w3.org/2000/svg">
<path d="M5.12461 8.18272C5.4132 8.18272 5.6419 7.95402 5.6419 7.67632V2.54146L5.59834 1.77913L5.90328 2.16574L6.59482 2.90084C6.68194 2.99886 6.80719 3.05331 6.93787 3.05331C7.18291 3.05331 7.38983 2.87362 7.38983 2.61225C7.38983 2.48156 7.34082 2.38355 7.24825 2.29098L5.52211 0.63018C5.39142 0.499495 5.26618 0.455933 5.12461 0.455933C4.98848 0.455933 4.86324 0.499495 4.73255 0.63018L3.00641 2.29098C2.91384 2.38355 2.85939 2.48156 2.85939 2.61225C2.85939 2.87362 3.06631 3.05331 3.31134 3.05331C3.44203 3.05331 3.57271 2.99886 3.65984 2.90084L4.35138 2.16574L4.65632 1.77913L4.61275 2.54146V7.67632C4.61275 7.95402 4.84145 8.18272 5.12461 8.18272ZM2.15151 12.332H8.09226C9.23032 12.332 9.82385 11.7385 9.82385 10.6167V5.58535C9.82385 4.46363 9.23032 3.8701 8.09226 3.8701H6.72551V4.98637H8.00514C8.45709 4.98637 8.71302 5.22051 8.71302 5.6997V10.5024C8.71302 10.9816 8.45709 11.2157 8.00514 11.2157H2.24408C1.78668 11.2157 1.5362 10.9816 1.5362 10.5024V5.6997C1.5362 5.22051 1.78668 4.98637 2.24408 4.98637H3.54004V3.8701H2.15151C1.02434 3.8701 0.419922 4.46363 0.419922 5.58535V10.6167C0.419922 11.7385 1.02434 12.332 2.15151 12.332Z" fill="white"/>
</svg>
