<svg width="63" height="63" viewBox="0 0 63 63" fill="none" xmlns="http://www.w3.org/2000/svg">
<path fill-rule="evenodd" clip-rule="evenodd" d="M62.5469 13.8996C62.5469 6.22304 56.3238 -8.17343e-06 48.6473 -8.84453e-06L13.8984 -8.06768e-06C6.22191 -8.73878e-06 -0.00112848 6.22304 -0.00112909 13.8996L-0.00113186 48.6484C-0.00113247 56.325 6.22192 62.548 13.8984 62.548L48.6473 62.548C56.3238 62.548 62.5469 56.3249 62.5469 48.6484L62.5469 13.8996ZM52.1211 17.3747L52.1211 10.4249L52.1209 10.4249L45.7057 10.4249L32.8748 10.4249L26.4597 10.4249L10.4224 10.4249L10.4224 17.3747L26.4597 17.3747L26.4597 25.9783L32.8748 27.7994L32.8748 17.3747L45.7057 17.3747L45.7057 36.0995L52.1209 38.224L52.1209 17.3747L52.1211 17.3747ZM10.4204 52.1247L10.4204 45.1749L10.4206 45.1749L10.4206 24.3256L16.8358 26.653L16.8358 45.1749L26.4597 45.1749L26.4597 34.7489L32.8748 36.4371L32.8748 45.1749L52.1191 45.1749L52.1191 52.1247L16.8358 52.1247L10.4206 52.1247L10.4204 52.1247Z" fill="white"/>
</svg>
